<?xml version="1.0" encoding="UTF-8"?>
<!DOCTYPE svg PUBLIC "-//W3C//DTD SVG 1.1//EN" "http://www.w3.org/Graphics/SVG/1.1/DTD/svg11.dtd">
<!-- Creator: CorelDRAW 2020 (64 Bit) -->
<svg xmlns="http://www.w3.org/2000/svg" xml:space="preserve" width="10.2108mm" height="6.0537mm" version="1.1" style="shape-rendering:geometricPrecision; text-rendering:geometricPrecision; image-rendering:optimizeQuality; fill-rule:evenodd; clip-rule:evenodd"
viewBox="0 0 388.64 230.41"
 xmlns:xlink="http://www.w3.org/1999/xlink"
 xmlns:xodm="http://www.corel.com/coreldraw/odm/2003">
 <defs>
  <style type="text/css">
   <![CDATA[
    .fil0 {fill:black;fill-rule:nonzero}
    .fil1 {fill:#439ECB;fill-rule:nonzero}
   ]]>
  </style>
 </defs>
 <g id="Camada_x0020_1">
  <metadata id="CorelCorpID_0Corel-Layer"/>
  <g id="_1767072429632">
   <path class="fil0" d="M83.46 230.41c-15.69,0 -29.81,-2.69 -42.38,-8.06 -12.57,-5.37 -22.51,-13.1 -29.81,-23.2 -7.3,-10.1 -11.06,-22.02 -11.28,-35.77l48.34 0c0.64,9.24 3.92,16.54 9.83,21.91 5.91,5.37 14.02,8.06 24.33,8.06 10.53,0 18.8,-2.52 24.81,-7.57 6.02,-5.05 9.02,-11.65 9.02,-19.82 0,-6.66 -2.04,-12.14 -6.12,-16.43 -4.08,-4.3 -9.18,-7.68 -15.31,-10.15 -6.12,-2.47 -14.55,-5.21 -25.3,-8.22 -14.61,-4.3 -26.48,-8.54 -35.61,-12.73 -9.13,-4.19 -16.97,-10.53 -23.52,-19.01 -6.55,-8.49 -9.83,-19.82 -9.83,-34 0,-13.32 3.33,-24.92 9.99,-34.8 6.66,-9.88 16,-17.45 28.04,-22.72 12.03,-5.26 25.78,-7.89 41.25,-7.89 23.2,0 42.05,5.64 56.56,16.92 14.51,11.28 22.51,27.02 24.01,47.21l-49.63 0c-0.43,-7.73 -3.7,-14.12 -9.83,-19.17 -6.12,-5.05 -14.23,-7.57 -24.33,-7.57 -8.81,0 -15.84,2.26 -21.11,6.77 -5.26,4.51 -7.89,11.06 -7.89,19.66 0,6.01 1.99,11.01 5.96,14.98 3.97,3.97 8.92,7.2 14.82,9.67 5.91,2.47 14.23,5.32 24.97,8.54 14.61,4.29 26.53,8.59 35.77,12.89 9.24,4.3 17.19,10.74 23.85,19.34 6.66,8.59 9.99,19.87 9.99,33.84 0,12.03 -3.12,23.2 -9.35,33.52 -6.23,10.31 -15.36,18.53 -27.39,24.65 -12.03,6.12 -26.32,9.18 -42.86,9.18z"/>
   <polygon class="fil1" points="388.64,3.22 388.64,228.16 343.52,228.16 343.52,132.45 247.17,132.45 247.17,228.16 202.05,228.16 202.05,3.22 247.17,3.22 247.17,95.71 343.52,95.71 343.52,3.22 "/>
  </g>
 </g>
</svg>
