<?xml version="1.0" encoding="UTF-8"?>
<!DOCTYPE svg PUBLIC "-//W3C//DTD SVG 1.1//EN" "http://www.w3.org/Graphics/SVG/1.1/DTD/svg11.dtd">
<!-- Creator: CorelDRAW 2020 (64 Bit) -->
<svg xmlns="http://www.w3.org/2000/svg" xml:space="preserve" width="0.9904mm" height="0.9196mm" version="1.1" style="shape-rendering:geometricPrecision; text-rendering:geometricPrecision; image-rendering:optimizeQuality; fill-rule:evenodd; clip-rule:evenodd"
viewBox="0 0 99.02 91.94"
 xmlns:xlink="http://www.w3.org/1999/xlink"
 xmlns:xodm="http://www.corel.com/coreldraw/odm/2003">
 <defs>
  <style type="text/css">
   <![CDATA[
    .fil0 {fill:#439ECB;fill-rule:nonzero}
   ]]>
  </style>
 </defs>
 <g id="Camada_x0020_1">
  <metadata id="CorelCorpID_0Corel-Layer"/>
  <path class="fil0" d="M35.36 28.29l19.58 0 0 10.03 0.28 0c2.72,-4.88 9.39,-10.03 19.33,-10.03 20.66,0 24.48,12.86 24.48,29.58l0 34.06 -20.4 0 0 -30.19c0,-7.21 -0.15,-16.48 -10.62,-16.48 -10.63,0 -12.25,7.85 -12.25,15.95l0 30.72 -20.4 0 0 -63.65zm-14.15 -17.69c0,5.86 -4.75,10.61 -10.61,10.61 -5.86,0 -10.61,-4.75 -10.61,-10.61 0,-5.86 4.75,-10.61 10.61,-10.61 5.86,0 10.61,4.75 10.61,10.61zm-21.22 17.69l21.22 0 0 63.65 -21.22 0 0 -63.65z"/>
 </g>
</svg>
