<?xml version="1.0" encoding="UTF-8"?>
<!DOCTYPE svg PUBLIC "-//W3C//DTD SVG 1.1//EN" "http://www.w3.org/Graphics/SVG/1.1/DTD/svg11.dtd">
<!-- Creator: CorelDRAW 2020 (64 Bit) -->
<svg xmlns="http://www.w3.org/2000/svg" xml:space="preserve" width="176.389mm" height="117.828mm" version="1.1" style="shape-rendering:geometricPrecision; text-rendering:geometricPrecision; image-rendering:optimizeQuality; fill-rule:evenodd; clip-rule:evenodd"
viewBox="0 0 2675.15 1787"
 xmlns:xlink="http://www.w3.org/1999/xlink"
 xmlns:xodm="http://www.corel.com/coreldraw/odm/2003">
 <defs>
  <style type="text/css">
   <![CDATA[
    .fil0 {fill:#FAFAFA}
    .fil6 {fill:#373435;fill-rule:nonzero}
    .fil1 {fill:#0C8FE7;fill-rule:nonzero}
    .fil4 {fill:#0D3285;fill-rule:nonzero}
    .fil5 {fill:#171932;fill-rule:nonzero}
    .fil3 {fill:#9884B5;fill-rule:nonzero}
    .fil2 {fill:#D4D7FF;fill-rule:nonzero}
   ]]>
  </style>
 </defs>
 <g id="Camada_x0020_1">
  <metadata id="CorelCorpID_0Corel-Layer"/>
  <rect class="fil0" width="2675.15" height="1787"/>
  <g id="_2135893989200">
   <path class="fil1" d="M1299.22 992.54c1.36,-0.12 2.8,0.91 2.95,2.39l16.3 152.38 63.19 -2.15 15.08 -155.77c0.14,-1.49 1.6,-2.53 2.94,-2.42 1.48,0.15 2.56,1.46 2.42,2.94l-15.31 158.12c-0.13,1.34 -1.23,2.39 -2.59,2.44l-68.14 2.31c-1.38,0 -2.53,-1.03 -2.68,-2.41l-16.56 -154.87c-0.15,-1.47 0.91,-2.8 2.39,-2.96zm311.46 336.94c6.75,-33.2 15.81,-53.9 21.87,-65.06 23.38,-50.58 62.28,-96.28 79.82,-115.52 -10.26,-20.3 -26.99,-46.51 -51.71,-63.62 -45.74,-31.66 -197.93,-124.55 -210.7,-131.97 -36.52,28.04 -80.76,40.9 -124.44,38.57 0.19,0.2 0.4,0.44 0.4,0.44 0,0 -48.67,-0.1 -78.76,-16.48 -17.56,-9.57 -26.06,-16.45 -30.11,-20.54 -7.87,2.43 -52.83,17.54 -113.28,62.9 -40.97,30.74 -112.21,108.78 -106.87,131.13 5.34,22.34 94.76,184.09 121.21,229.36 34.39,58.85 78.33,200.73 78.33,200.73l-92.29 5.29 493.51 0c0.25,-11.72 4.59,-213.72 13.02,-255.22z"/>
   <path class="fil2" d="M1441.04 827.02c1.72,13.81 3.91,30.41 6.35,45.98l-6.35 -45.98z"/>
   <path class="fil2" d="M1297.23 874.9c0,0 13.98,17.69 42.25,17.73 24.58,0.03 36.22,-19.86 36.22,-19.86 0,0 -3.77,33.74 -49.78,46.05 -45.99,12.31 -28.69,-43.92 -28.69,-43.92zm67.19 -17.72c-26.51,16.83 -93.62,0.92 -101.11,-9.28 0,0 2.71,52.85 6.41,70.79 3.54,17.17 51.65,68.74 55.8,73.17 43.67,2.33 87.91,-10.53 124.44,-38.57 -0.13,-0.08 -0.34,-0.2 -0.43,-0.26 -8.81,-5.03 -11.49,-123.98 -12,-151.42l-3.48 -25.23c-2.89,1.69 -5.62,3.27 -8.1,4.69 -14.29,21.63 -44.36,65.21 -61.52,76.1z"/>
   <path class="fil2" d="M1219.48 904.15l-5.96 43.16c0.13,0.11 0.27,0.21 0.41,0.32l5.54 -43.48z"/>
   <path class="fil2" d="M1267.11 684.12c6.56,-4.19 18.21,-0.83 18.21,-0.83 -1.68,0 -24.09,16.23 -24.09,16.23 0,0 -1.58,-10.64 5.88,-15.4zm44.81 -76.17c0,0 -0.29,2.81 -0.68,7.13 2.17,-14.65 4.74,-29.56 6.94,-41.61 0.27,-1.47 1.68,-2.43 3.13,-2.17 1.46,0.27 2.43,1.67 2.17,3.13 -7.88,43.12 -14.17,90.71 -11.05,95.7 4.21,2.98 20.97,4.59 30.48,4.84 0.57,0.02 1.03,0.33 1.47,0.65 6.73,0.09 12.71,-0.22 15.89,-1.21 0,0 -17.42,19.65 -28.12,20.77 -5.8,0.61 -29.66,-16.62 -30.55,-19.1 -0.77,-2.14 10.3,-68.12 10.3,-68.12zm66.7 -92.07c-3.31,-4.84 -1.26,-9.49 -1.26,-9.49l8.98 10.67c0.63,-0.08 1.26,-0.16 1.91,-0.24 -0.27,-0.31 -0.55,-0.58 -0.8,-0.94 -3.31,-4.84 -1.26,-9.49 -1.26,-9.49l8.2 9.75c0.43,-0.04 0.86,-0.08 1.28,-0.12l-0.12 -0.14c-3.31,-4.84 -1.26,-9.49 -1.26,-9.49l7.72 9.18c4.31,-0.21 8.19,-0.17 10.93,0.32 11.4,2.02 39.38,26.37 39.38,26.37l-81.73 -22.8c0,0 4.07,-0.73 9.77,-1.57 -0.63,-0.57 -1.22,-1.22 -1.76,-2zm77.97 61.89c0,0 -11.5,-3.17 -24.61,-5.79 0.35,1.32 0.59,2.68 0.59,4.11 0,9.07 -7.35,16.42 -16.41,16.42 -9.07,0 -16.42,-7.35 -16.42,-16.42 0,-2.75 0.75,-5.32 1.95,-7.59 -15.68,-0.15 -23,-2.65 -23,-2.65 0,0 29.5,-15.53 50.12,-5.91 20.62,9.62 27.79,17.84 27.79,17.84zm-72.49 105.52c0,0 11.65,-3.36 18.21,0.83 7.46,4.76 5.88,15.4 5.88,15.4 0,0 -22.41,-16.23 -24.09,-16.23zm-183.73 -29.32l108.62 158.84 0 -0c2,0.92 3.94,1.8 5.79,2.62 14.2,6.37 29.94,6.37 44.14,0 15.36,-6.88 36.56,-16.96 56.41,-28.39 -0.4,0.22 -0.66,0.36 -0.66,0.36 0,0 22.04,-17.06 43.37,-49.76 16.31,-25.02 27.61,-66.59 32.03,-84.79 1.67,-9.94 3.27,-20.21 4.76,-30.71 3.96,0.95 8.3,1.23 12.97,0.42 12.96,-2.23 26.11,-19.78 33.12,-39.98 0.08,-5.88 0.09,-41.6 -11.33,-48.86 -6.79,-4.32 -14.5,-4.57 -20.2,-3.93 -0.31,1.15 -1.2,4.1 -2.67,7.4 4.56,-3.66 9.84,-5.16 15.74,-2.94 14.86,5.61 9.89,29.78 9.89,29.78 0,0 -8.66,-9.37 -18.55,0 -9.89,9.37 -8.82,42.57 -8.82,42.57 0,0 -15.3,-1.24 -15.91,-22.26 -0.31,-10.59 2.93,-25.17 8.85,-36.06 -0.74,0.35 -1.5,0.59 -2.3,0.7l0 0.05 -0.26 0.01c-0.23,0.02 -0.48,-0.01 -0.71,-0.01 -0.36,-0 -0.78,-0.04 -1.32,-0.1 -0.19,-0.03 -0.36,-0.04 -0.54,-0.08 -3.74,-0.55 -10.48,-2.81 -15.52,-12.03 -7.31,-13.38 -2.33,-83.78 -2.33,-83.78 0,0 -37.08,2.96 -51.94,-24.53 -5.67,-10.5 -9.23,-21.12 -11.53,-29.52 -1.93,-2.66 -3.72,-5.37 -5.42,-8.11 -3.25,27.4 -17.25,99.85 -65.63,120.74 -8.52,3.68 -16.54,6.45 -24.22,8.59l0 0.05c-29.41,19.54 -24.8,45.57 -24.8,45.57 0,0 -7.31,2.49 -22.99,2.65 1.19,2.28 1.94,4.84 1.94,7.59 0,9.07 -7.35,16.42 -16.42,16.42 -9.06,0 -16.41,-7.35 -16.41,-16.42 0,-1.43 0.24,-2.78 0.59,-4.11 -13.11,2.63 -24.6,5.79 -24.6,5.79l12.6 -37.85 -8.35 2.33c0,0 13.05,-11.36 24.96,-19.2 -8.4,-1.38 -16.64,-3.05 -24.96,-4.65 -8.59,-1.65 -30.5,-8.52 -38.47,-11.06l-1.19 35.13c0.04,2.66 -0.08,4.97 -0.29,7.08 4.92,22.75 14.16,65.54 22.56,104.43z"/>
   <path class="fil2" d="M1170.13 563.82c-1.23,0.3 -2.53,0.18 -3.85,-0.14 1.99,7.24 3,14.61 2.82,20.67 -0.62,21.02 -15.9,22.26 -15.9,22.26 0,0 1.06,-33.21 -8.83,-42.57 -9.89,-9.37 -18.55,0 -18.55,0 0,0 -4.97,-24.17 9.9,-29.78 5.46,-2.06 10.4,-0.94 14.72,2.14 -0.47,-6.62 -1.01,-12.73 -1.71,-17.99 -10.97,-0.91 -21.91,1.64 -28.68,12.29 -17.86,28.07 7.66,87.61 32.33,91.86 9.62,1.66 17.8,-1.23 24.22,-5.35 -2.79,-20.85 -5.04,-40.57 -6.45,-53.38z"/>
   <path class="fil3" d="M1242.73 523.04c5.52,-3.64 10.8,-6.53 14.43,-7.17 2.73,-0.49 6.63,-0.52 10.92,-0.32l5.78 -6.87c-18.54,3.6 -31.79,2.87 -31.79,2.87l25.19 -26.05c-34.91,16.49 -68.04,14.68 -68.04,14.68l19.93 -20.6c-23.71,-2.5 -38.58,-9.45 -38.58,-9.45l-1.26 37.2c7.96,2.54 29.88,9.41 38.47,11.06 8.32,1.6 16.56,3.27 24.96,4.65z"/>
   <path class="fil3" d="M1274.55 515.87l-0.12 0.14c0.42,0.04 0.86,0.08 1.28,0.12l8.2 -9.75c0,0 2.05,4.65 -1.26,9.49 -0.24,0.36 -0.53,0.63 -0.8,0.94 0.65,0.08 1.28,0.16 1.91,0.24l8.98 -10.67c0,0 2.05,4.65 -1.26,9.49 -0.53,0.78 -1.13,1.43 -1.76,2 5.71,0.84 9.77,1.57 9.77,1.57l-73.38 20.47 -12.6 37.85c0,0 7.16,-8.23 27.78,-17.84 20.62,-9.62 50.12,5.91 50.12,5.91 0,0 -4.61,-26.02 24.8,-45.57l0 -0.05c7.68,-2.15 15.71,-4.92 24.22,-8.59 48.38,-20.9 62.38,-93.34 65.63,-120.74 -3.74,-6.04 -6.96,-12.12 -9.61,-17.81 -0.89,0.25 -1.8,0.61 -2.75,1.07 -4.03,16.81 -10.15,37.5 -19.07,56.49 -1.97,4.32 -4.29,8.66 -6.79,12.98 -0.63,1.09 -1.21,2.21 -1.85,3.28 -0.12,0.18 -0.25,0.33 -0.37,0.51 -4.06,6.52 -8.73,12.96 -14.25,19.1 -23.33,25.97 -52.69,37 -75.12,41.69 0.32,1.78 0.4,4.62 -1.69,7.68z"/>
   <path class="fil3" d="M1487.83 427.97c-5.26,2.05 -11.59,3.62 -19.08,3.62 -7.84,0 -16.86,-1.66 -26.94,-6.11 -12.22,-5.4 -22.27,-15.39 -30.32,-26.49 2.3,8.4 5.86,19.02 11.53,29.52 14.86,27.49 51.94,24.53 51.94,24.53 0,0 -4.98,70.41 2.33,83.78 5.05,9.22 11.78,11.48 15.52,12.03 -1.54,-0.37 -3.18,-1.21 -4.93,-2.66 -12.24,-10.19 -3.09,-93.47 -0.06,-118.22z"/>
   <path class="fil3" d="M1494.68 549.04c-0.43,0 -0.87,-0.02 -1.32,-0.1 0.54,0.06 0.97,0.1 1.32,0.1z"/>
   <polygon class="fil3" points="1495.65,549.04 1495.65,548.99 1495.39,549.05 "/>
   <path class="fil3" d="M1135.71 534.26c-14.87,5.61 -9.9,29.78 -9.9,29.78 0,0 8.66,-9.37 18.55,0 9.89,9.37 8.83,42.57 8.83,42.57 0,0 15.29,-1.24 15.9,-22.26 0.18,-6.06 -0.84,-13.43 -2.82,-20.67 -7.02,-1.73 -14.69,-11.39 -15.35,-20.32 -0.02,-0.25 -0.04,-0.5 -0.06,-0.75 -0.12,-2.23 -0.29,-4.14 -0.44,-6.21 -4.32,-3.08 -9.25,-4.2 -14.72,-2.14z"/>
   <path class="fil3" d="M1497.95 548.29c-5.92,10.89 -9.17,25.47 -8.85,36.06 0.62,21.02 15.91,22.26 15.91,22.26 0,0 -1.07,-33.21 8.82,-42.57 9.89,-9.37 18.55,0 18.55,0 0,0 4.97,-24.17 -9.89,-29.78 -5.9,-2.23 -11.18,-0.72 -15.74,2.94 -1.93,4.38 -4.87,9.24 -8.8,11.1z"/>
   <path class="fil4" d="M1376.74 265.66l0 -0 0.01 0.01c2.98,3.18 5.49,6.55 7.79,9.99 7.68,9.25 13.22,17.3 16.1,21.72 14.49,18.56 31.59,39.08 39.24,42.96 14.51,7.37 38.65,-2.75 64.07,11.58l0.13 0.09c-0.97,-2.48 -1.61,-3.79 -1.61,-3.79 0,0 3.97,0.43 9.06,3.19 -18.3,-13.33 -47.74,-11.27 -62.6,-10.63l65.62 -19.49c0,0 -23.33,-14.99 -49.66,-6.11 -12.8,4.32 -22.14,12.64 -28.2,19.68 -12.95,-23.85 -62.48,-117.24 -134.64,-111.69 25.79,2.11 48.77,18 66.27,34.92 3.06,2.39 5.92,4.9 8.44,7.56z"/>
   <path class="fil4" d="M1108.84 416.03c17.42,56.79 33.42,53.76 39.88,102.37 0.71,5.27 1.25,11.38 1.71,17.99 0.15,2.08 0.33,3.98 0.44,6.21 0.01,0.25 0.03,0.51 0.06,0.75 0.66,8.93 8.33,18.59 15.35,20.32 1.33,0.32 2.63,0.44 3.85,0.14 3.77,-0.93 6.8,-5.17 7.69,-14.28 0.22,-2.11 0.34,-4.42 0.29,-7.08l1.19 -35.13 1.26 -37.2c0,0 14.87,6.95 38.58,9.45l-19.93 20.6c0,0 33.13,1.81 68.04,-14.68l-25.19 26.05c0,0 13.26,0.72 31.79,-2.87l1.94 -2.31c0,0 0.25,0.77 0.43,1.81 22.43,-4.69 51.79,-15.72 75.12,-41.69 5.52,-6.14 10.2,-12.58 14.25,-19.1 -26.26,42.27 -92.41,45.77 -92.41,45.77 0,0 35.17,-21.84 49.82,-37.89 14.67,-16.04 12.55,-33.71 12.55,-33.71 0,0 -23.61,33.58 -65.21,51.66 -31.45,13.66 -48.73,11.09 -48.73,11.09l20.43 -28.44c0,0 -9.44,12.39 -42.85,11.63 -33.41,-0.76 -57.86,-36.79 -57.86,-36.79 0,0 40.18,-4.73 72.52,-26.52 -1.84,0.95 -3.69,1.9 -5.67,2.71 -14.09,5.76 -28.92,7.68 -42.41,7.68 -26.08,0 -47.19,-7.17 -48.52,-7.63 -1.4,-0.49 -2.14,-2.02 -1.66,-3.43 0.49,-1.4 2.02,-2.15 3.43,-1.66 0.47,0.16 47.69,16.17 87.11,0.05 17.45,-7.14 29.21,-20.97 36.91,-34.15 2.45,-7.24 2.88,-12.4 2.88,-12.4 0,0 -7.77,19.29 -28.19,28.85 -23.69,11.09 -56.97,-3.2 -56.97,-3.2 0,0 39.73,-5.76 60.85,-81.23 10.98,-39.23 51.48,-81.33 121.63,-54.95 -18.26,-12.4 -39.74,-20.3 -62.38,-14.69 -48.33,11.98 -62.91,47.07 -73.55,72.69 -3.51,8.46 -6.55,15.77 -10.28,21.12 -12.48,17.88 -36.57,19.76 -46.17,19.76 -2.3,0 -3.76,-0.1 -4.05,-0.13 -1.48,-0.12 -2.58,-1.41 -2.46,-2.9 0.12,-1.48 1.32,-2.67 2.9,-2.47 0.31,0.04 31.68,2.27 45.37,-17.35 3.4,-4.87 6.34,-11.93 9.73,-20.1 2.78,-6.69 5.8,-13.98 9.6,-21.38 -6.73,8.57 -12.47,14.26 -21.51,13.12 -40.55,-5.14 -72.32,23.12 -82.86,61.85 -5.16,18.95 -5.31,40.36 1.22,61.67z"/>
   <path class="fil4" d="M1509.02 416.16c0,0 1.38,-16.18 -11.56,-29 -12.94,-12.82 -45.13,-13.44 -45.13,-13.44 0,0 5.38,9.63 15.5,19.72 8.71,8.69 24.31,13.88 28.51,15.16 2.32,-2.06 5.82,-2.12 8.14,0.01 2.44,2.28 2.6,6.08 0.35,8.54 -0.48,0.52 -6.47,6.71 -17,10.82 -3.03,24.76 -12.17,108.03 0.06,118.22 1.75,1.45 3.39,2.29 4.93,2.66 0.18,0.05 0.36,0.05 0.54,0.08 0.45,0.08 0.89,0.1 1.32,0.1 0.23,0 0.48,0.03 0.71,0.01l0.26 -0.06c0.8,-0.11 1.56,-0.35 2.3,-0.7 3.93,-1.86 6.87,-6.71 8.8,-11.1 1.46,-3.3 2.35,-6.25 2.67,-7.4 -4.73,0.53 -8.08,1.67 -8.08,1.67 4.13,-7.26 9.03,-41.74 12.9,-89.88 1.29,-16.01 1.01,-30.1 -0.05,-42.25 -2.24,9.67 -5.15,16.83 -5.15,16.83z"/>
   <path class="fil4" d="M1446.73 414.36c25.57,11.3 42.08,0.59 47.34,-3.79 -4.21,1.76 -12.15,4.2 -22.7,3.28 -15.94,-1.39 -34.91,-6.01 -49.69,-26.69 -11.64,-16.27 -18.05,-42.19 -21.14,-52.82 -0.05,3.82 -0.29,6.12 -0.29,6.12 0,0 -0.32,2.46 -1.01,6.64 4.28,12.96 20.08,55.15 47.5,67.26z"/>
   <path class="fil4" d="M1393.7 374.14c0.95,-0.46 1.87,-0.82 2.75,-1.07 -0.57,-1.23 -1.11,-2.44 -1.64,-3.62 -0.35,1.51 -0.74,3.1 -1.12,4.69z"/>
   <path class="fil4" d="M1374.63 430.63c-2.09,4.46 -4.38,8.79 -6.79,12.98 2.51,-4.32 4.82,-8.66 6.79,-12.98z"/>
   <path class="fil5" d="M1378.69 565.84c0,0 7.31,2.49 23,2.65 -1.2,2.28 -1.95,4.84 -1.95,7.59 0,9.07 7.36,16.42 16.42,16.42 9.06,0 16.41,-7.35 16.41,-16.42 0,-1.43 -0.24,-2.78 -0.59,-4.11 13.11,2.63 24.61,5.79 24.61,5.79 0,0 -7.17,-8.23 -27.79,-17.84 -20.61,-9.62 -50.12,5.91 -50.12,5.91z"/>
   <path class="fil5" d="M1452.33 542.24c0,0 -27.98,-24.36 -39.38,-26.37 -2.74,-0.49 -6.63,-0.52 -10.93,-0.32l-7.72 -9.18c0,0 -2.05,4.65 1.26,9.49l0.12 0.14c-0.42,0.04 -0.84,0.08 -1.28,0.12l-8.2 -9.75c0,0 -2.05,4.65 1.26,9.49 0.25,0.36 0.53,0.63 0.8,0.94 -0.65,0.08 -1.28,0.16 -1.91,0.24l-8.98 -10.67c0,0 -2.05,4.65 1.26,9.49 0.53,0.78 1.13,1.43 1.76,2 -5.7,0.84 -9.77,1.57 -9.77,1.57l81.73 22.8z"/>
   <path class="fil5" d="M1241.3 559.92c-20.62,9.62 -27.78,17.84 -27.78,17.84 0,0 11.49,-3.17 24.6,-5.79 -0.35,1.32 -0.59,2.68 -0.59,4.11 0,9.07 7.36,16.42 16.41,16.42 9.07,0 16.42,-7.35 16.42,-16.42 0,-2.75 -0.75,-5.32 -1.94,-7.59 15.67,-0.15 22.99,-2.65 22.99,-2.65 0,0 -29.5,-15.53 -50.12,-5.91z"/>
   <path class="fil5" d="M1257.16 515.87c-3.62,0.64 -8.91,3.53 -14.43,7.17 -11.91,7.85 -24.96,19.2 -24.96,19.2l8.35 -2.33 73.38 -20.47c0,0 -4.07,-0.73 -9.77,-1.57 0.63,-0.57 1.23,-1.22 1.76,-2 3.31,-4.84 1.26,-9.49 1.26,-9.49l-8.98 10.67c-0.63,-0.08 -1.26,-0.16 -1.91,-0.24 0.27,-0.31 0.56,-0.58 0.8,-0.94 3.31,-4.84 1.26,-9.49 1.26,-9.49l-8.2 9.75c-0.42,-0.04 -0.86,-0.08 -1.28,-0.12l0.12 -0.14c2.09,-3.06 2.01,-5.9 1.69,-7.68 -0.18,-1.04 -0.43,-1.81 -0.43,-1.81l-1.94 2.31 -5.78 6.87c-4.3,-0.21 -8.19,-0.17 -10.92,0.32z"/>
   <path class="fil3" d="M1332.16 695.16c10.7,-1.12 28.12,-20.77 28.12,-20.77 -3.18,0.99 -9.16,1.3 -15.89,1.21 0.67,0.51 1.18,1.2 1.16,2.11 -0.04,1.46 -1.27,2.62 -2.73,2.62 -2.69,-0.07 -26.51,-0.84 -33.78,-6.1 -4.7,-3.4 -2.02,-30.77 2.2,-59.16 0.39,-4.31 0.68,-7.13 0.68,-7.13 0,0 -11.07,65.98 -10.3,68.12 0.89,2.48 24.74,19.7 30.55,19.1z"/>
   <path class="fil5" d="M1309.04 674.23c7.27,5.26 31.09,6.03 33.78,6.1 1.47,0 2.69,-1.16 2.73,-2.62 0.02,-0.91 -0.49,-1.61 -1.16,-2.11 -0.44,-0.32 -0.89,-0.63 -1.47,-0.65 -9.51,-0.25 -26.27,-1.85 -30.48,-4.84 -3.12,-4.99 3.17,-52.58 11.05,-95.7 0.26,-1.46 -0.71,-2.86 -2.17,-3.13 -1.45,-0.26 -2.86,0.7 -3.13,2.17 -2.2,12.05 -4.77,26.97 -6.94,41.61 -4.22,28.4 -6.9,55.76 -2.2,59.16z"/>
   <path class="fil3" d="M1247.17 975.82c30.08,16.38 78.76,16.48 78.76,16.48 0,0 -0.22,-0.23 -0.4,-0.44 -4.16,-4.43 -52.27,-56.01 -55.8,-73.17 -3.7,-17.94 -6.41,-70.79 -6.41,-70.79 7.5,10.2 74.6,26.11 101.11,9.28 17.16,-10.89 47.23,-54.47 61.52,-76.1 -5.17,2.95 -9.13,5.15 -10.6,5.96 -19.85,11.42 -41.05,21.51 -56.41,28.39 -14.2,6.37 -29.94,6.37 -44.14,0 -1.85,-0.83 -3.8,-1.7 -5.79,-2.62l0 0 -108.62 -158.84c-8.41,-38.88 -17.65,-81.68 -22.56,-104.43 -0.89,9.12 -3.93,13.35 -7.69,14.28 1.41,12.82 3.67,32.53 6.45,53.38 2.94,22.02 6.45,45.24 10.14,62.78 9.1,43.33 14.37,62.44 25.47,73.94 2.98,3.1 7.48,6.81 12.08,10.36l0.02 0.03c3.16,3.25 7.21,6.57 11.76,9.87l-16.59 129.97 -5.54 43.48 -0.41 3.22c0,0 0.65,1.5 3.54,4.42 4.06,4.09 12.55,10.97 30.11,20.54z"/>
   <path class="fil3" d="M1402.33 684.12c-6.56,-4.19 -18.21,-0.83 -18.21,-0.83 1.68,0 24.09,16.23 24.09,16.23 0,0 1.58,-10.64 -5.88,-15.4z"/>
   <path class="fil3" d="M1285.32 683.29c0,0 -11.65,-3.36 -18.21,0.83 -7.46,4.76 -5.88,15.4 -5.88,15.4 0,0 22.41,-16.23 24.09,-16.23z"/>
   <path class="fil5" d="M1367.84 443.61c2.41,-4.19 4.7,-8.52 6.79,-12.98 8.92,-18.99 15.04,-39.68 19.07,-56.49 0.38,-1.58 0.77,-3.18 1.12,-4.69 -5.47,-12.36 -8.26,-22 -8.54,-22.98 -0.91,-3.23 0.97,-6.58 4.2,-7.49 3.26,-0.95 6.59,0.98 7.51,4.2 0.02,0.09 0.47,1.58 1.24,3.92 0.69,-4.19 1.01,-6.64 1.01,-6.64 0,0 0.24,-2.3 0.29,-6.12 3.09,10.64 9.5,36.56 21.14,52.82 14.78,20.68 33.76,25.3 49.69,26.69 10.55,0.92 18.5,-1.52 22.7,-3.28 1.06,-0.88 1.72,-1.53 1.83,-1.66 0.13,-0.14 0.3,-0.19 0.45,-0.31 -4.2,-1.28 -19.8,-6.47 -28.51,-15.16 -10.12,-10.09 -15.5,-19.72 -15.5,-19.72 0,0 32.19,0.63 45.13,13.44 12.94,12.82 11.56,29 11.56,29 0,0 2.91,-7.16 5.15,-16.83 -2.12,-24.22 -7.43,-40.44 -10.11,-47.32l-0.13 -0.09c-25.42,-14.33 -49.55,-4.21 -64.07,-11.58 -7.65,-3.88 -24.74,-24.4 -39.24,-42.96 1.22,1.87 1.99,3.11 2.2,3.49 0.77,1.27 0.36,2.92 -0.91,3.69 -1.27,0.77 -2.93,0.36 -3.7,-0.92 -0.35,-0.57 -22.56,-36.8 -54.95,-58.79 -70.14,-26.38 -110.65,15.72 -121.63,54.95 -21.12,75.47 -60.85,81.23 -60.85,81.23 0,0 33.28,14.29 56.97,3.2 20.43,-9.56 28.19,-28.85 28.19,-28.85 0,0 -0.43,5.16 -2.88,12.4 9.55,-16.33 12.87,-31.64 12.92,-31.92 0.29,-1.45 1.78,-2.42 3.18,-2.09 1.45,0.3 2.4,1.72 2.09,3.17 -0.42,2.05 -10.4,48.14 -47.39,67.25 -32.34,21.8 -72.52,26.52 -72.52,26.52 0,0 24.45,36.03 57.86,36.79 33.41,0.76 42.85,-11.63 42.85,-11.63l-20.43 28.44c0,0 17.28,2.58 48.73,-11.09 41.6,-18.08 65.21,-51.66 65.21,-51.66 0,0 2.11,17.67 -12.55,33.71 -14.66,16.04 -49.82,37.89 -49.82,37.89 0,0 66.15,-3.5 92.41,-45.77 0.12,-0.18 0.25,-0.33 0.37,-0.51 0.64,-1.06 1.23,-2.19 1.85,-3.28z"/>
   <path class="fil5" d="M1376.75 265.67l-0.01 -0.01 0 0c-2.52,-2.67 -5.38,-5.17 -8.44,-7.56 6.13,5.92 11.58,11.95 16.24,17.56 -2.3,-3.44 -4.81,-6.81 -7.79,-9.99z"/>
   <path class="fil5" d="M1441.81 425.48c10.08,4.45 19.09,6.11 26.94,6.11 7.5,0 13.82,-1.57 19.08,-3.62 10.53,-4.1 16.52,-10.3 17,-10.82 2.26,-2.46 2.09,-6.27 -0.35,-8.54 -2.31,-2.13 -5.81,-2.07 -8.14,-0.01 -0.14,0.12 -0.32,0.17 -0.45,0.31 -0.12,0.13 -0.77,0.78 -1.83,1.66 -5.26,4.38 -21.77,15.09 -47.34,3.79 -27.42,-12.11 -43.22,-54.3 -47.5,-67.26 -0.77,-2.33 -1.22,-3.83 -1.24,-3.92 -0.92,-3.22 -4.25,-5.15 -7.51,-4.2 -3.23,0.91 -5.11,4.26 -4.2,7.49 0.28,0.99 3.07,10.62 8.54,22.98 0.52,1.18 1.06,2.39 1.64,3.62 2.66,5.69 5.87,11.77 9.61,17.81 1.7,2.74 3.49,5.45 5.42,8.11 8.05,11.09 18.09,21.09 30.32,26.49z"/>
   <path class="fil5" d="M1192.65 320.88c-13.69,19.62 -45.05,17.39 -45.37,17.35 -1.57,-0.2 -2.78,0.99 -2.9,2.47 -0.12,1.48 0.99,2.78 2.46,2.9 0.28,0.03 1.75,0.13 4.05,0.13 9.6,0 33.69,-1.88 46.17,-19.76 3.73,-5.35 6.77,-12.66 10.28,-21.12 10.64,-25.62 25.22,-60.71 73.55,-72.69 22.64,-5.6 44.12,2.29 62.38,14.69 32.39,21.99 54.61,58.22 54.95,58.79 0.77,1.28 2.43,1.69 3.7,0.92 1.27,-0.77 1.68,-2.42 0.91,-3.69 -0.22,-0.38 -0.99,-1.62 -2.2,-3.49 -2.87,-4.42 -8.42,-12.47 -16.1,-21.72 -4.66,-5.61 -10.11,-11.63 -16.24,-17.56 -17.5,-16.92 -40.47,-32.81 -66.27,-34.92 -7.28,-0.6 -14.76,-0.14 -22.44,1.75 -38.18,9.47 -56.28,32.37 -67.61,54.47 -3.8,7.39 -6.82,14.69 -9.6,21.38 -3.39,8.17 -6.33,15.23 -9.73,20.1z"/>
   <path class="fil5" d="M1261.27 336.94c0.3,-1.45 -0.64,-2.88 -2.09,-3.17 -1.4,-0.33 -2.88,0.64 -3.18,2.09 -0.05,0.28 -3.37,15.59 -12.92,31.92 -7.7,13.18 -19.46,27.02 -36.91,34.15 -39.42,16.12 -86.65,0.1 -87.11,-0.05 -1.41,-0.48 -2.93,0.26 -3.43,1.66 -0.48,1.41 0.26,2.94 1.66,3.43 1.33,0.46 22.44,7.63 48.52,7.63 13.49,0 28.32,-1.92 42.41,-7.68 1.98,-0.81 3.83,-1.77 5.67,-2.71 36.99,-19.11 46.97,-65.2 47.39,-67.25z"/>
   <path class="fil3" d="M1325.92 918.82c46.01,-12.31 49.78,-46.05 49.78,-46.05 0,0 -11.64,19.89 -36.22,19.86 -28.27,-0.04 -42.25,-17.73 -42.25,-17.73 0,0 -17.3,56.23 28.69,43.92z"/>
   <path class="fil2" d="M1023.9 1350.89c22.54,58.8 52.26,92.01 52.26,92.01l13.36 142.64c0,0 -15.07,-238.92 -47.91,-308.87 -15.26,-32.51 -36.66,-62.04 -55.23,-84.45 0.17,1.14 15.1,100.21 37.52,158.67z"/>
   <path class="fil2" d="M1721.44 1139.23c0.03,0.16 0.06,0.32 0.11,0.47l-0.04 -0.53 -0.06 0.06z"/>
   <path class="fil2" d="M1712.37 1148.89c-17.54,19.23 -56.44,64.93 -79.82,115.52 3.9,-7.15 6.56,-10.42 6.56,-10.42 0,0 -22.67,56.37 -11.51,134.89 11.15,78.53 45.84,196.38 45.84,196.38l87.54 0 -4.39 -49.65 -31.7 -358.02c-1.2,-2.93 -5.23,-14.25 -12.53,-28.7z"/>
   <path class="fil3" d="M1076.17 1442.9c0,0 -29.72,-33.21 -52.26,-92.01 -22.41,-58.46 -37.35,-157.53 -37.52,-158.67l-0.01 -0.05c-2.96,-8.6 -39.37,-44.2 -39.37,-44.2l-13.04 173.73 -15.98 212.84 -3.83 51.02 175.36 0 -13.36 -142.64z"/>
   <path class="fil3" d="M1627.6 1388.89c-11.16,-78.53 11.51,-134.89 11.51,-134.89 0,0 -2.67,3.27 -6.56,10.42 -6.06,11.16 -15.12,31.87 -21.87,65.06 -8.43,41.49 -12.77,243.49 -13.02,255.22 0,0.36 -0.01,0.58 -0.01,0.58l75.79 0c0,0 -34.69,-117.85 -45.84,-196.38z"/>
   <path class="fil5" d="M1316.06 1152.77l68.14 -2.31c1.36,-0.05 2.46,-1.1 2.59,-2.44l15.31 -158.12c0.14,-1.48 -0.94,-2.79 -2.42,-2.94 -1.33,-0.11 -2.8,0.93 -2.94,2.42l-15.08 155.77 -63.19 2.15 -16.3 -152.38c-0.15,-1.48 -1.6,-2.52 -2.95,-2.39 -1.48,0.15 -2.55,1.48 -2.39,2.96l16.56 154.87c0.15,1.38 1.3,2.41 2.68,2.41z"/>
   <path class="fil2" d="M1504.07 352.01c2.68,6.88 7.99,23.1 10.11,47.32 1.06,12.14 1.35,26.23 0.05,42.25 -3.87,48.14 -8.76,82.62 -12.9,89.88 0,0 3.35,-1.14 8.08,-1.67 5.69,-0.64 13.41,-0.39 20.2,3.93 11.41,7.26 11.4,42.97 11.33,48.86 -0.01,0.53 -0.01,0.91 -0.01,0.91 0,0 14.7,-40.72 3.39,-54.3 -3.02,-3.63 -6.53,-6.23 -10.05,-8.18 -9.64,-5.33 -19.36,-5.39 -19.36,-5.39 0,0 22.24,-103.36 17.16,-132.33 -0.07,-0.37 -0.12,-0.79 -0.19,-1.14 -3.16,-14.73 -9.74,-23.05 -15.88,-27.79 -1.54,-1.19 -3.05,-2.17 -4.48,-2.95 -5.09,-2.77 -9.06,-3.19 -9.06,-3.19 0,0 0.64,1.3 1.61,3.79z"/>
   <path class="fil2" d="M1414.68 787.4c0,0 0.26,-0.14 0.66,-0.36 1.47,-0.81 5.42,-3 10.6,-5.96 2.48,-1.42 5.22,-3 8.1,-4.69 13.4,-7.87 29.58,-17.94 33.95,-23.11 7.82,-9.24 24.18,-109.48 24.18,-109.48 0,0 -0.74,3.47 -2.09,9.05 -4.43,18.19 -15.72,59.77 -32.03,84.79 -21.33,32.7 -43.37,49.76 -43.37,49.76z"/>
  </g>
  <polygon class="fil6" points="812.29,11.84 812.29,21.34 773.38,21.34 773.38,51.52 804.97,51.52 804.97,61.02 773.38,61.02 773.38,101.34 761.7,101.34 761.7,11.84 "/>
  <path id="1" class="fil6" d="M857.1 102.5c-6.59,0 -12.56,-1.5 -17.91,-4.49 -5.35,-3 -9.55,-7.26 -12.58,-12.78 -3.04,-5.52 -4.56,-11.92 -4.56,-19.2 0,-7.19 1.56,-13.55 4.69,-19.07 3.12,-5.52 7.38,-9.76 12.78,-12.71 5.39,-2.95 11.43,-4.43 18.11,-4.43 6.68,0 12.71,1.48 18.11,4.43 5.39,2.95 9.65,7.17 12.78,12.65 3.12,5.48 4.69,11.86 4.69,19.13 0,7.28 -1.6,13.68 -4.82,19.2 -3.21,5.52 -7.55,9.78 -13.03,12.78 -5.48,3 -11.56,4.49 -18.23,4.49zm0 -10.27c4.19,0 8.13,-0.98 11.81,-2.95 3.68,-1.97 6.66,-4.92 8.92,-8.86 2.27,-3.94 3.4,-8.73 3.4,-14.38 0,-5.65 -1.11,-10.44 -3.34,-14.38 -2.23,-3.94 -5.14,-6.87 -8.73,-8.8 -3.59,-1.93 -7.49,-2.89 -11.68,-2.89 -4.28,0 -8.2,0.96 -11.75,2.89 -3.55,1.93 -6.4,4.86 -8.54,8.8 -2.14,3.94 -3.21,8.73 -3.21,14.38 0,5.73 1.05,10.57 3.15,14.51 2.1,3.94 4.9,6.87 8.41,8.8 3.51,1.93 7.36,2.89 11.56,2.89z"/>
  <path id="2" class="fil6" d="M922.85 40.61l0 41.48c0,3.42 0.73,5.84 2.18,7.26 1.45,1.41 3.98,2.12 7.58,2.12l8.6 0 0 9.89 -10.53 0c-6.51,0 -11.39,-1.5 -14.64,-4.49 -3.25,-3 -4.88,-7.92 -4.88,-14.77l0 -41.48 -9.12 0 0 -9.63 9.12 0 0 -17.72 11.68 0 0 17.72 18.36 0 0 9.63 -18.36 0z"/>
  <path id="3" class="fil6" d="M986.03 102.5c-6.59,0 -12.56,-1.5 -17.91,-4.49 -5.35,-3 -9.55,-7.26 -12.58,-12.78 -3.04,-5.52 -4.56,-11.92 -4.56,-19.2 0,-7.19 1.56,-13.55 4.69,-19.07 3.12,-5.52 7.38,-9.76 12.78,-12.71 5.39,-2.95 11.43,-4.43 18.11,-4.43 6.68,0 12.71,1.48 18.11,4.43 5.39,2.95 9.65,7.17 12.78,12.65 3.12,5.48 4.69,11.86 4.69,19.13 0,7.28 -1.6,13.68 -4.82,19.2 -3.21,5.52 -7.55,9.78 -13.03,12.78 -5.48,3 -11.56,4.49 -18.23,4.49zm0 -10.27c4.19,0 8.13,-0.98 11.81,-2.95 3.68,-1.97 6.66,-4.92 8.92,-8.86 2.27,-3.94 3.4,-8.73 3.4,-14.38 0,-5.65 -1.11,-10.44 -3.34,-14.38 -2.23,-3.94 -5.14,-6.87 -8.73,-8.8 -3.59,-1.93 -7.49,-2.89 -11.68,-2.89 -4.28,0 -8.2,0.96 -11.75,2.89 -3.55,1.93 -6.4,4.86 -8.54,8.8 -2.14,3.94 -3.21,8.73 -3.21,14.38 0,5.73 1.05,10.57 3.15,14.51 2.1,3.94 4.9,6.87 8.41,8.8 3.51,1.93 7.36,2.89 11.56,2.89z"/>
  <path id="4" class="fil6" d="M1067.44 65.9c0,-7.19 1.45,-13.5 4.36,-18.94 2.91,-5.44 6.91,-9.65 12.01,-12.65 5.09,-3 10.76,-4.5 17.01,-4.5 6.16,0 11.51,1.33 16.05,3.98 4.54,2.65 7.92,5.99 10.14,10.02l0 -12.84 11.81 0 0 70.37 -11.81 0 0 -13.1c-2.31,4.11 -5.76,7.51 -10.34,10.21 -4.58,2.7 -9.91,4.04 -15.99,4.04 -6.25,0 -11.9,-1.54 -16.95,-4.62 -5.05,-3.08 -9.03,-7.4 -11.94,-12.97 -2.91,-5.56 -4.36,-11.9 -4.36,-19zm59.58 0.13c0,-5.31 -1.07,-9.93 -3.21,-13.87 -2.14,-3.94 -5.03,-6.96 -8.67,-9.05 -3.64,-2.1 -7.64,-3.15 -12.01,-3.15 -4.37,0 -8.35,1.03 -11.94,3.08 -3.6,2.06 -6.46,5.05 -8.6,8.99 -2.14,3.94 -3.21,8.56 -3.21,13.87 0,5.39 1.07,10.08 3.21,14.06 2.14,3.98 5.01,7.02 8.6,9.12 3.6,2.1 7.58,3.15 11.94,3.15 4.37,0 8.37,-1.05 12.01,-3.15 3.64,-2.1 6.53,-5.14 8.67,-9.12 2.14,-3.98 3.21,-8.63 3.21,-13.93zm-9.12 -49.05l0 8.73 -27.35 -14.64 0 -10.14 27.35 16.05z"/>
  <path id="5" class="fil6" d="M1188.52 66.03c0,-7.28 1.45,-13.63 4.36,-19.07 2.91,-5.44 6.96,-9.65 12.13,-12.65 5.18,-3 11.11,-4.5 17.79,-4.5 8.65,0 15.77,2.1 21.38,6.29 5.61,4.19 9.31,10.02 11.11,17.46l-12.58 0c-1.2,-4.28 -3.53,-7.66 -7,-10.14 -3.47,-2.48 -7.77,-3.72 -12.9,-3.72 -6.68,0 -12.07,2.29 -16.18,6.87 -4.11,4.58 -6.16,11.06 -6.16,19.45 0,8.47 2.05,15.02 6.16,19.65 4.11,4.62 9.5,6.93 16.18,6.93 5.14,0 9.42,-1.2 12.84,-3.6 3.42,-2.4 5.78,-5.82 7.06,-10.27l12.58 0c-1.88,7.19 -5.65,12.95 -11.3,17.27 -5.65,4.32 -12.71,6.49 -21.19,6.49 -6.68,0 -12.61,-1.5 -17.79,-4.49 -5.18,-3 -9.22,-7.23 -12.13,-12.71 -2.91,-5.48 -4.36,-11.9 -4.36,-19.26z"/>
  <path id="6" class="fil6" d="M1266.47 65.9c0,-7.19 1.45,-13.5 4.36,-18.94 2.91,-5.44 6.91,-9.65 12.01,-12.65 5.09,-3 10.76,-4.5 17.01,-4.5 6.16,0 11.51,1.33 16.05,3.98 4.54,2.65 7.92,5.99 10.14,10.02l0 -12.84 11.81 0 0 70.37 -11.81 0 0 -13.1c-2.31,4.11 -5.76,7.51 -10.34,10.21 -4.58,2.7 -9.91,4.04 -15.99,4.04 -6.25,0 -11.9,-1.54 -16.95,-4.62 -5.05,-3.08 -9.03,-7.4 -11.94,-12.97 -2.91,-5.56 -4.36,-11.9 -4.36,-19zm59.58 0.13c0,-5.31 -1.07,-9.93 -3.21,-13.87 -2.14,-3.94 -5.03,-6.96 -8.67,-9.05 -3.64,-2.1 -7.64,-3.15 -12.01,-3.15 -4.37,0 -8.35,1.03 -11.94,3.08 -3.6,2.06 -6.46,5.05 -8.6,8.99 -2.14,3.94 -3.21,8.56 -3.21,13.87 0,5.39 1.07,10.08 3.21,14.06 2.14,3.98 5.01,7.02 8.6,9.12 3.6,2.1 7.58,3.15 11.94,3.15 4.37,0 8.37,-1.05 12.01,-3.15 3.64,-2.1 6.53,-5.14 8.67,-9.12 2.14,-3.98 3.21,-8.63 3.21,-13.93z"/>
  <path id="7" class="fil6" d="M1442.26 29.69c5.48,0 10.36,1.13 14.64,3.4 4.28,2.27 7.66,5.67 10.14,10.21 2.48,4.54 3.72,10.06 3.72,16.56l0 41.48 -11.56 0 0 -39.81c0,-7.02 -1.73,-12.39 -5.2,-16.11 -3.47,-3.72 -8.15,-5.59 -14.06,-5.59 -6.08,0 -10.92,1.95 -14.51,5.84 -3.6,3.89 -5.39,9.52 -5.39,16.89l0 38.78 -11.56 0 0 -39.81c0,-7.02 -1.73,-12.39 -5.2,-16.11 -3.47,-3.72 -8.15,-5.59 -14.06,-5.59 -6.08,0 -10.91,1.95 -14.51,5.84 -3.6,3.89 -5.39,9.52 -5.39,16.89l0 38.78 -11.69 0 0 -70.37 11.69 0 0 10.14c2.31,-3.68 5.41,-6.51 9.31,-8.47 3.9,-1.97 8.2,-2.95 12.9,-2.95 5.91,0 11.13,1.33 15.67,3.98 4.54,2.65 7.92,6.55 10.14,11.69 1.97,-4.97 5.22,-8.82 9.76,-11.56 4.54,-2.74 9.59,-4.11 15.15,-4.11z"/>
  <path id="8" class="fil6" d="M1495.93 19.55c-2.23,0 -4.11,-0.77 -5.65,-2.31 -1.54,-1.54 -2.31,-3.42 -2.31,-5.65 0,-2.23 0.77,-4.11 2.31,-5.65 1.54,-1.54 3.42,-2.31 5.65,-2.31 2.14,0 3.96,0.77 5.46,2.31 1.5,1.54 2.25,3.42 2.25,5.65 0,2.22 -0.75,4.11 -2.25,5.65 -1.5,1.54 -3.32,2.31 -5.46,2.31zm5.65 11.43l0 70.37 -11.69 0 0 -70.37 11.69 0z"/>
  <path id="9" class="fil6" d="M1555.77 29.69c8.56,0 15.5,2.59 20.8,7.77 5.31,5.18 7.96,12.65 7.96,22.41l0 41.48 -11.56 0 0 -39.81c0,-7.02 -1.75,-12.39 -5.27,-16.11 -3.51,-3.72 -8.3,-5.59 -14.38,-5.59 -6.16,0 -11.07,1.93 -14.7,5.78 -3.64,3.85 -5.46,9.46 -5.46,16.82l0 38.91 -11.69 0 0 -70.37 11.69 0 0 10.02c2.31,-3.6 5.46,-6.38 9.44,-8.35 3.98,-1.97 8.37,-2.95 13.16,-2.95z"/>
  <path id="10" class="fil6" d="M1638.59 29.69c5.31,0 10.1,1.13 14.38,3.4 4.28,2.27 7.64,5.67 10.08,10.21 2.44,4.54 3.66,10.06 3.66,16.56l0 41.48 -11.56 0 0 -39.81c0,-7.02 -1.75,-12.39 -5.27,-16.11 -3.51,-3.72 -8.3,-5.59 -14.38,-5.59 -6.16,0 -11.07,1.93 -14.7,5.78 -3.64,3.85 -5.46,9.46 -5.46,16.82l0 38.91 -11.69 0 0 -95.02 11.69 0 0 34.67c2.31,-3.6 5.5,-6.38 9.57,-8.35 4.07,-1.97 8.63,-2.95 13.68,-2.95z"/>
  <path id="11" class="fil6" d="M1716.54 102.5c-6.59,0 -12.56,-1.5 -17.91,-4.49 -5.35,-3 -9.55,-7.26 -12.58,-12.78 -3.04,-5.52 -4.56,-11.92 -4.56,-19.2 0,-7.19 1.56,-13.55 4.69,-19.07 3.12,-5.52 7.38,-9.76 12.78,-12.71 5.39,-2.95 11.43,-4.43 18.11,-4.43 6.68,0 12.71,1.48 18.11,4.43 5.39,2.95 9.65,7.17 12.78,12.65 3.12,5.48 4.69,11.86 4.69,19.13 0,7.28 -1.6,13.68 -4.82,19.2 -3.21,5.52 -7.55,9.78 -13.03,12.78 -5.48,3 -11.56,4.49 -18.23,4.49zm0 -10.27c4.19,0 8.13,-0.98 11.81,-2.95 3.68,-1.97 6.66,-4.92 8.92,-8.86 2.27,-3.94 3.4,-8.73 3.4,-14.38 0,-5.65 -1.11,-10.44 -3.34,-14.38 -2.23,-3.94 -5.14,-6.87 -8.73,-8.8 -3.59,-1.93 -7.49,-2.89 -11.68,-2.89 -4.28,0 -8.2,0.96 -11.75,2.89 -3.55,1.93 -6.4,4.86 -8.54,8.8 -2.14,3.94 -3.21,8.73 -3.21,14.38 0,5.73 1.05,10.57 3.15,14.51 2.1,3.94 4.9,6.87 8.41,8.8 3.51,1.93 7.36,2.89 11.56,2.89z"/>
 </g>
</svg>
